REM DIRINDEX 1\2,1\3,1\4,1\5\6,1\5\7,1\8
REM DIRNAME cjc115,folder01,folder02,folder03,folder04,folder05,folder06,folder07
TITLE ""
FILE "021 【021】Unit2 (0229 bankrupt_0240 complex).mp3" MP3
  TRACK 01 AUDIO
    TITLE "0:"
    INDEX 01 00:00:00
  TRACK 02 AUDIO
    TITLE "2:cjc115_0802"
    INDEX 01 00:00:05
  TRACK 03 AUDIO
    TITLE "0:"
    INDEX 01 00:01:26
  TRACK 04 AUDIO
    TITLE "3:cjc115_0803"
    INDEX 01 00:01:34
  TRACK 05 AUDIO
    TITLE "0:"
    INDEX 01 00:03:70
  TRACK 06 AUDIO
    TITLE "4:cjc115_0804"
    INDEX 01 00:04:05
  TRACK 07 AUDIO
    TITLE "0:"
    INDEX 01 00:07:11
  TRACK 08 AUDIO
    TITLE "2:cjc115_0805"
    INDEX 01 00:08:19
  TRACK 09 AUDIO
    TITLE "0:"
    INDEX 01 00:09:42
  TRACK 10 AUDIO
    TITLE "3:cjc115_0806"
    INDEX 01 00:09:53
  TRACK 11 AUDIO
    TITLE "0:"
    INDEX 01 00:11:35
  TRACK 12 AUDIO
    TITLE "4:cjc115_0807"
    INDEX 01 00:11:44
  TRACK 13 AUDIO
    TITLE "0:"
    INDEX 01 00:14:41
  TRACK 14 AUDIO
    TITLE "2:cjc115_0808"
    INDEX 01 00:15:50
  TRACK 15 AUDIO
    TITLE "0:"
    INDEX 01 00:16:61
  TRACK 16 AUDIO
    TITLE "3:cjc115_0809"
    INDEX 01 00:16:71
  TRACK 17 AUDIO
    TITLE "0:"
    INDEX 01 00:20:00
  TRACK 18 AUDIO
    TITLE "4:cjc115_0810"
    INDEX 01 00:20:06
  TRACK 19 AUDIO
    TITLE "0:"
    INDEX 01 00:25:29
  TRACK 20 AUDIO
    TITLE "2:cjc115_0811"
    INDEX 01 00:26:36
  TRACK 21 AUDIO
    TITLE "0:"
    INDEX 01 00:27:57
  TRACK 22 AUDIO
    TITLE "3:cjc115_0812"
    INDEX 01 00:27:67
  TRACK 23 AUDIO
    TITLE "0:"
    INDEX 01 00:28:72
  TRACK 24 AUDIO
    TITLE "4:cjc115_0813"
    INDEX 01 00:29:07
  TRACK 25 AUDIO
    TITLE "0:"
    INDEX 01 00:33:13
  TRACK 26 AUDIO
    TITLE "2:cjc115_0814"
    INDEX 01 00:34:20
  TRACK 27 AUDIO
    TITLE "0:"
    INDEX 01 00:35:25
  TRACK 28 AUDIO
    TITLE "3:cjc115_0815"
    INDEX 01 00:35:33
  TRACK 29 AUDIO
    TITLE "0:"
    INDEX 01 00:37:18
  TRACK 30 AUDIO
    TITLE "4:cjc115_0816"
    INDEX 01 00:37:24
  TRACK 31 AUDIO
    TITLE "0:"
    INDEX 01 00:41:34
  TRACK 32 AUDIO
    TITLE "2:cjc115_0817"
    INDEX 01 00:42:45
  TRACK 33 AUDIO
    TITLE "0:"
    INDEX 01 00:44:01
  TRACK 34 AUDIO
    TITLE "3:cjc115_0818"
    INDEX 01 00:44:09
  TRACK 35 AUDIO
    TITLE "0:"
    INDEX 01 00:46:54
  TRACK 36 AUDIO
    TITLE "4:cjc115_0819"
    INDEX 01 00:46:62
  TRACK 37 AUDIO
    TITLE "0:"
    INDEX 01 00:51:40
  TRACK 38 AUDIO
    TITLE "2:cjc115_0820"
    INDEX 01 00:52:47
  TRACK 39 AUDIO
    TITLE "0:"
    INDEX 01 00:53:66
  TRACK 40 AUDIO
    TITLE "3:cjc115_0821"
    INDEX 01 00:54:01
  TRACK 41 AUDIO
    TITLE "0:"
    INDEX 01 00:56:08
  TRACK 42 AUDIO
    TITLE "4:cjc115_0822"
    INDEX 01 00:56:16
  TRACK 43 AUDIO
    TITLE "0:"
    INDEX 01 01:00:00
  TRACK 44 AUDIO
    TITLE "2:cjc115_0823"
    INDEX 01 01:01:11
  TRACK 45 AUDIO
    TITLE "0:"
    INDEX 01 01:02:30
  TRACK 46 AUDIO
    TITLE "3:cjc115_0824"
    INDEX 01 01:02:38
  TRACK 47 AUDIO
    TITLE "0:"
    INDEX 01 01:04:41
  TRACK 48 AUDIO
    TITLE "4:cjc115_0825"
    INDEX 01 01:04:50
  TRACK 49 AUDIO
    TITLE "0:"
    INDEX 01 01:08:54
  TRACK 50 AUDIO
    TITLE "2:cjc115_0826"
    INDEX 01 01:09:56
  TRACK 51 AUDIO
    TITLE "0:"
    INDEX 01 01:10:73
  TRACK 52 AUDIO
    TITLE "3:cjc115_0827"
    INDEX 01 01:11:07
  TRACK 53 AUDIO
    TITLE "0:"
    INDEX 01 01:12:46
  TRACK 54 AUDIO
    TITLE "4:cjc115_0828"
    INDEX 01 01:12:56
  TRACK 55 AUDIO
    TITLE "0:"
    INDEX 01 01:15:58
  TRACK 56 AUDIO
    TITLE "2:cjc115_0829"
    INDEX 01 01:16:67
  TRACK 57 AUDIO
    TITLE "0:"
    INDEX 01 01:17:73
  TRACK 58 AUDIO
    TITLE "3:cjc115_0830"
    INDEX 01 01:18:07
  TRACK 59 AUDIO
    TITLE "0:"
    INDEX 01 01:20:40
  TRACK 60 AUDIO
    TITLE "4:cjc115_0831"
    INDEX 01 01:20:48
  TRACK 61 AUDIO
    TITLE "0:"
    INDEX 01 01:23:65
  TRACK 62 AUDIO
    TITLE "2:cjc115_0832"
    INDEX 01 01:24:73
  TRACK 63 AUDIO
    TITLE "0:"
    INDEX 01 01:26:03
  TRACK 64 AUDIO
    TITLE "3:cjc115_0833"
    INDEX 01 01:26:11
  TRACK 65 AUDIO
    TITLE "0:"
    INDEX 01 01:28:41
  TRACK 66 AUDIO
    TITLE "4:cjc115_0834"
    INDEX 01 01:28:51
  TRACK 67 AUDIO
    TITLE "0:"
    INDEX 01 01:32:64
  TRACK 68 AUDIO
    TITLE "2:cjc115_0835"
    INDEX 01 01:33:74
  TRACK 69 AUDIO
    TITLE "0:"
    INDEX 01 01:35:20
  TRACK 70 AUDIO
    TITLE "3:cjc115_0836"
    INDEX 01 01:35:24
  TRACK 71 AUDIO
    TITLE "0:"
    INDEX 01 01:36:39
  TRACK 72 AUDIO
    TITLE "4:cjc115_0837"
    INDEX 01 01:36:48
  TRACK 73 AUDIO
    TITLE "0:"
    INDEX 01 01:41:14
